<?xml version="1.0" standalone="no"?>
<!DOCTYPE svg PUBLIC "-//W3C//DTD SVG 20010904//EN"
 "http://www.w3.org/TR/2001/REC-SVG-20010904/DTD/svg10.dtd">
<svg version="1.0" xmlns="http://www.w3.org/2000/svg"
 width="626.000000pt" height="417.000000pt" viewBox="0 0 626.000000 417.000000"
 preserveAspectRatio="xMidYMid meet">

<g transform="translate(0.000000,417.000000) scale(0.100000,-0.100000)"
fill="#000000" stroke="none">
<path d="M2990 3800 c0 -6 -46 -11 -102 -12 -16 -1 -28 -4 -28 -8 0 -3 -14 -5
-32 -4 -20 1 -45 -7 -67 -22 -20 -13 -42 -24 -49 -24 -7 0 -10 -4 -7 -10 3 -5
0 -10 -8 -10 -29 0 -30 -104 -1 -331 13 -102 14 -144 6 -167 -9 -26 -8 -30 4
-25 20 7 27 45 20 97 -5 34 -4 45 9 49 11 5 15 0 15 -20 l0 -26 25 23 c17 16
40 24 77 27 58 4 63 7 53 22 -3 6 -35 11 -71 11 -41 0 -63 4 -59 10 3 6 23 10
43 10 31 1 34 2 19 11 -10 6 -29 8 -41 5 -18 -4 -24 0 -35 29 -16 46 -4 67 56
95 49 24 113 29 198 17 22 -3 48 -6 58 -6 29 -1 32 -30 6 -54 l-23 -21 25 -6
c22 -6 22 -7 -11 -15 l-35 -8 40 -7 c36 -6 37 -7 10 -9 -16 -1 -41 -8 -55 -16
-24 -14 -23 -15 20 -10 25 2 37 2 28 -1 -10 -3 -18 -9 -18 -14 0 -5 -6 -7 -12
-5 -7 3 -19 1 -27 -4 -20 -13 4 -51 32 -51 18 0 14 -5 -18 -23 -47 -26 -56
-59 -30 -114 9 -19 14 -41 11 -49 -8 -20 10 -17 32 6 10 11 33 20 52 21 19 2
47 9 62 16 l28 13 -7 -32 c-3 -18 -10 -39 -16 -45 -13 -18 -62 -16 -77 2 -19
23 -40 18 -40 -10 0 -18 -5 -25 -20 -25 -12 0 -32 -8 -46 -17 -21 -13 -30 -14
-45 -5 -25 16 -26 15 -32 -8 -3 -12 -14 -20 -26 -20 -16 0 -21 6 -21 28 0 15
5 33 12 40 20 20 1 14 -37 -12 -21 -15 -47 -23 -63 -22 -24 3 -28 0 -32 -33
-3 -22 -10 -35 -18 -33 -7 1 -12 -3 -11 -10 5 -43 -3 -90 -19 -106 -15 -15
-19 -35 -20 -88 -1 -37 -4 -81 -7 -96 -4 -17 -2 -28 4 -28 6 0 11 19 11 43 1
23 7 56 14 72 l14 30 12 -48 c7 -26 17 -50 23 -54 5 -3 7 -1 3 5 -3 6 -2 13 4
17 5 3 10 17 10 30 0 13 7 31 16 40 16 15 19 15 38 -7 51 -55 103 -135 101
-155 -1 -13 3 -23 9 -24 6 -1 0 -5 -14 -9 -19 -6 -9 -8 38 -9 35 -1 78 6 99
14 44 19 43 19 43 -5 0 -31 72 -29 92 3 21 31 35 179 16 172 -21 -8 -13 119
11 185 11 30 20 65 21 77 0 16 12 29 40 43 50 26 60 45 60 118 0 63 -14 87
-44 76 -9 -3 -16 -5 -16 -3 0 2 7 40 15 84 8 44 14 100 15 125 0 26 5 51 11
57 8 8 9 21 2 40 -5 15 -8 39 -6 53 4 42 -18 100 -39 100 -10 0 -18 4 -18 9 0
5 -18 12 -40 16 -22 4 -42 10 -44 14 -3 3 -28 8 -57 9 -29 1 -55 6 -58 10 -7
10 -61 11 -61 2z m185 -510 c8 -13 -15 -13 -35 0 -12 8 -11 10 7 10 12 0 25
-4 28 -10z m-75 -50 c0 -5 -4 -10 -10 -10 -5 0 -7 -7 -4 -15 4 -9 0 -15 -10
-15 -19 0 -21 21 -4 38 15 15 28 16 28 2z m-167 -237 c-13 -2 -35 -2 -50 0
-16 2 -5 4 22 4 28 0 40 -2 28 -4z m127 -37 c-6 -6 -18 -11 -27 -13 -32 -6
-122 -5 -133 2 -26 16 -3 22 80 21 56 0 86 -4 80 -10z m-169 -48 c30 -33 30
-33 24 -6 l-7 26 55 -21 c32 -13 50 -25 43 -29 -7 -5 -3 -8 9 -8 19 -1 20 -1
1 -15 -13 -10 -24 -11 -36 -5 -10 6 -21 5 -27 -1 -6 -6 -19 -2 -36 11 -15 12
-27 17 -27 11 0 -5 5 -13 11 -17 6 -3 8 -15 6 -25 -4 -14 4 -26 24 -41 21 -16
26 -24 17 -29 -24 -13 -65 2 -79 29 -22 44 -22 45 -10 38 14 -9 14 -10 -4 39
-28 80 -14 97 36 43z m-200 -85 c-10 -17 -10 -16 -11 3 0 23 13 41 18 25 2 -6
-1 -18 -7 -28z"/>
<path d="M2785 3263 c-31 -34 -31 -37 1 -52 23 -10 26 -10 20 5 -8 20 10 35
32 26 13 -4 12 -7 -4 -13 -18 -6 -17 -8 6 -17 l25 -10 -32 -7 c-36 -8 -35 -25
1 -25 25 0 61 23 61 39 0 5 9 17 20 26 20 15 20 15 -4 35 -35 30 -94 27 -126
-7z m74 8 c9 -6 2 -10 -22 -13 -29 -3 -34 -1 -25 9 12 15 27 16 47 4z"/>
<path d="M2670 3261 c0 -25 6 -27 13 -6 4 8 2 17 -3 20 -6 4 -10 -3 -10 -14z"/>
<path d="M4616 2990 c-11 -22 -23 -40 -29 -40 -5 0 -7 -6 -4 -14 3 -7 -3 -27
-14 -45 -12 -20 -17 -40 -13 -60 3 -16 1 -38 -5 -49 -13 -25 -1 -35 32 -27 16
4 31 20 42 45 19 43 45 61 45 31 0 -10 -11 -31 -25 -47 -20 -24 -22 -30 -10
-37 18 -10 35 -1 35 19 0 20 34 86 87 166 54 84 60 98 39 98 -9 0 -16 -6 -16
-13 0 -8 -11 -24 -25 -37 -14 -13 -24 -29 -21 -36 5 -14 -13 -34 -31 -34 -9 0
-10 7 -2 28 l10 27 -30 -30 c-17 -16 -46 -61 -65 -100 -27 -54 -35 -64 -35
-44 -1 28 9 62 45 156 13 34 24 66 24 72 0 23 -16 9 -34 -29z"/>
<path d="M935 2920 c3 -5 8 -10 11 -10 2 0 4 5 4 10 0 6 -5 10 -11 10 -5 0 -7
-4 -4 -10z"/>
<path d="M4899 2923 c-1 -5 -2 -12 -3 -18 -5 -33 -20 -55 -36 -55 -13 0 -17
-5 -14 -14 3 -9 -8 -24 -30 -38 -19 -14 -45 -36 -56 -51 -12 -15 -30 -27 -41
-27 -20 0 -26 -24 -9 -35 10 -6 148 126 194 187 15 20 25 42 21 48 -7 12 -24
14 -26 3z"/>
<path d="M3208 2884 c5 -9 31 -28 58 -43 36 -20 48 -32 46 -46 -8 -60 -10 -73
-17 -104 -7 -30 -6 -34 9 -28 10 4 26 7 35 7 16 0 17 7 13 50 -3 31 0 55 7 64
9 11 10 20 1 36 -11 20 -10 21 9 10 30 -15 25 1 -8 27 -15 12 -54 26 -86 32
-76 14 -78 14 -67 -5z"/>
<path d="M729 2806 c27 -29 33 -32 25 -13 -2 7 -14 19 -27 26 -21 13 -21 12 2
-13z"/>
<path d="M890 2826 c0 -2 8 -10 18 -17 15 -13 16 -12 3 4 -13 16 -21 21 -21
13z"/>
<path d="M1397 2782 c-10 -10 -17 -24 -17 -30 0 -7 -4 -12 -9 -12 -6 0 -6 -13
0 -34 6 -22 6 -43 -1 -61 -5 -14 -10 -42 -10 -62 0 -25 -7 -43 -26 -59 -14
-13 -28 -24 -31 -24 -11 0 -53 -51 -53 -65 0 -7 -7 -20 -15 -29 -14 -13 -21
-13 -68 1 -28 8 -77 34 -107 56 -64 49 -114 81 -106 69 12 -20 156 -122 211
-150 69 -35 79 -49 131 -187 45 -124 55 -135 111 -135 57 0 103 20 136 59 33
40 34 63 3 104 -14 18 -53 86 -87 152 -57 109 -62 125 -60 175 1 30 6 67 12
81 6 16 7 40 1 65 -5 21 -5 52 -1 68 10 37 7 41 -14 18z"/>
<path d="M3391 2774 c0 -11 3 -14 6 -6 3 7 2 16 -1 19 -3 4 -6 -2 -5 -13z"/>
<path d="M800 2751 c37 -31 90 -65 90 -57 0 2 -28 23 -62 46 -45 29 -53 33
-28 11z"/>
<path d="M4972 2710 c-7 -11 -23 -20 -37 -20 -16 0 -25 -6 -25 -15 0 -8 3 -15
8 -15 15 1 86 45 90 58 6 20 -22 14 -36 -8z"/>
<path d="M901 2687 c2 -2 18 -11 34 -21 l30 -17 -24 20 c-13 12 -28 21 -34 21
-6 0 -8 -1 -6 -3z"/>
<path d="M4580 2671 c0 -12 5 -21 10 -21 6 0 10 6 10 14 0 8 -4 18 -10 21 -5
3 -10 -3 -10 -14z"/>
<path d="M4637 2676 c-4 -10 -5 -21 -2 -24 9 -9 17 6 13 25 -3 17 -4 17 -11
-1z"/>
<path d="M4233 2673 c-6 -2 3 -19 23 -41 19 -20 37 -48 40 -62 4 -14 17 -47
30 -74 25 -53 30 -76 15 -76 -5 0 -37 -51 -71 -112 l-62 -113 19 -35 c31 -59
117 -101 176 -86 24 6 47 53 82 166 24 77 57 125 109 155 29 17 61 51 95 100
28 41 66 85 84 99 23 19 27 26 15 26 -10 0 -18 5 -18 11 0 5 -5 7 -10 4 -6 -4
-9 -12 -8 -18 3 -12 -31 -57 -43 -57 -14 0 -19 33 -7 48 11 13 9 15 -22 8 -29
-5 -37 -3 -51 15 -10 13 -21 19 -28 14 -9 -5 -7 -11 8 -22 24 -16 28 -43 6
-43 -8 0 -15 9 -15 19 0 11 -9 23 -20 26 -12 4 -17 11 -14 18 4 7 4 9 0 5 -5
-4 -18 -3 -31 2 -22 8 -22 7 -14 -28 12 -50 11 -92 -1 -92 -5 0 -10 16 -10 36
0 32 -1 34 -16 20 -8 -9 -21 -16 -29 -16 -7 0 -22 -3 -32 -6 -13 -4 -15 -3 -4
4 20 14 -3 52 -28 45 -13 -3 -29 6 -50 29 -24 26 -39 34 -68 35 -21 0 -43 -1
-50 -4z m325 -54 c8 -13 11 -32 6 -52 -7 -32 -7 -32 -20 18 -7 28 -13 51 -14
53 -2 11 18 -2 28 -19z m32 -64 c0 -8 -2 -15 -4 -15 -2 0 -6 7 -10 15 -3 8 -1
15 4 15 6 0 10 -7 10 -15z m104 -33 c-6 -4 -14 -16 -19 -27 -8 -20 -8 -20 -13
0 -2 10 1 21 7 23 6 2 11 11 11 20 0 13 3 13 12 4 9 -9 10 -15 2 -20z"/>
<path d="M724 2655 c11 -8 24 -15 30 -15 5 0 1 7 -10 15 -10 8 -23 14 -29 14
-5 0 -1 -6 9 -14z"/>
<path d="M4819 2644 c-20 -25 0 -29 42 -8 l41 20 -35 1 c-20 1 -41 -5 -48 -13z"/>
<path d="M3351 2629 c-7 -12 -10 -23 -8 -26 3 -3 11 5 17 17 6 12 10 23 8 25
-2 2 -10 -5 -17 -16z"/>
<path d="M770 2626 c0 -2 7 -7 16 -10 8 -3 12 -2 9 4 -6 10 -25 14 -25 6z"/>
<path d="M2653 2575 c0 -33 2 -45 4 -27 2 18 2 45 0 60 -2 15 -4 0 -4 -33z"/>
<path d="M910 2560 c8 -5 20 -10 25 -10 6 0 3 5 -5 10 -8 5 -19 10 -25 10 -5
0 -3 -5 5 -10z"/>
<path d="M3431 2489 c-65 -81 -118 -125 -189 -157 -39 -17 -39 -17 -26 -48 11
-27 17 -30 43 -26 21 3 36 14 50 38 23 38 63 47 79 17 7 -12 12 7 17 64 6 76
9 83 42 114 20 19 34 30 31 24 -3 -5 -2 -19 2 -30 6 -18 8 -17 25 8 13 20 15
31 7 39 -6 6 -8 17 -5 24 13 33 -17 7 -76 -67z"/>
<path d="M3295 2550 c-3 -6 1 -7 9 -4 18 7 21 14 7 14 -6 0 -13 -4 -16 -10z"/>
<path d="M2270 2538 c0 -8 14 -14 33 -15 17 0 25 1 17 4 -8 3 -23 10 -32 15
-13 6 -18 5 -18 -4z"/>
<path d="M2351 2502 c8 -12 20 -17 38 -14 15 2 45 -3 65 -12 l38 -16 -6 -47
-6 -48 16 30 c9 17 18 31 19 33 5 6 48 -19 75 -42 19 -16 21 -17 10 -2 -33 42
-166 121 -223 131 -35 6 -37 5 -26 -13z"/>
<path d="M3643 2288 c3 -24 8 -68 11 -98 6 -54 33 -198 42 -232 3 -10 10 -18
15 -18 14 0 140 74 169 100 l25 21 -25 -12 c-24 -11 -24 -10 6 22 16 19 37 43
45 53 12 17 12 19 -2 10 -29 -16 -89 -73 -89 -84 0 -5 -19 -22 -42 -36 -24
-15 -53 -36 -65 -47 -13 -11 -23 -18 -23 -15 0 8 67 108 87 131 15 16 12 17
-49 17 -51 0 -67 4 -72 16 -8 21 -8 59 1 68 4 3 12 22 19 42 l12 35 -24 -16
-24 -15 0 50 c0 30 -4 50 -11 50 -7 0 -9 -15 -6 -42z"/>
<path d="M3766 2314 c-31 -30 -13 -33 24 -4 19 15 21 20 8 20 -9 0 -24 -7 -32
-16z"/>
<path d="M3156 2269 c2 -4 -5 -24 -16 -44 -33 -60 -24 -73 18 -25 42 50 47 73
15 75 -12 1 -20 -2 -17 -6z"/>
<path d="M2670 2156 c0 -82 2 -95 18 -100 65 -18 412 7 412 30 0 10 -7 11 -27
4 -47 -15 -194 -25 -283 -19 -84 5 -84 5 40 8 69 2 154 8 190 15 62 11 65 12
68 42 l3 30 -68 -7 c-85 -10 -221 -11 -290 -3 -51 7 -53 8 -53 39 l0 31 148
-4 c197 -5 233 -5 259 5 12 5 -41 8 -130 9 -84 0 -182 4 -219 8 l-68 7 0 -95z
m380 -16 c0 -5 -7 -10 -16 -10 -8 0 -13 -4 -9 -9 3 -5 0 -13 -6 -17 -8 -4 -9
-3 -5 4 5 9 -27 12 -121 13 -114 0 -172 4 -179 12 -2 1 70 4 158 5 89 1 164 4
166 7 8 8 12 6 12 -5z m-80 -40 c-31 -10 -146 -10 -225 0 -45 5 -22 7 95 8 91
0 145 -3 130 -8z"/>
<path d="M2123 2150 c-2 -18 0 -18 13 -6 17 18 18 26 1 26 -7 0 -13 -9 -14
-20z"/>
<path d="M3969 2133 c-13 -16 -12 -17 4 -4 16 13 21 21 13 21 -2 0 -10 -8 -17
-17z"/>
<path d="M4044 2106 c-3 -9 -11 -13 -16 -10 -10 7 -28 -13 -28 -31 1 -5 5 -2
11 7 5 9 16 15 24 12 15 -6 33 22 21 33 -3 3 -8 -2 -12 -11z"/>
<path d="M3970 2090 c-8 -5 -10 -10 -5 -10 6 0 17 5 25 10 8 5 11 10 5 10 -5
0 -17 -5 -25 -10z"/>
<path d="M2020 2065 c0 -9 62 -36 73 -31 9 3 9 5 0 5 -7 1 -10 8 -7 16 4 8 1
15 -6 15 -6 0 -8 -4 -5 -10 3 -5 -1 -10 -9 -10 -9 0 -16 5 -16 10 0 6 -7 10
-15 10 -8 0 -15 -2 -15 -5z"/>
<path d="M2650 1938 c-17 -159 -35 -250 -59 -299 -12 -23 -19 -44 -18 -46 13
-12 303 -24 422 -18 77 4 154 8 171 8 l31 1 -19 86 c-11 47 -26 112 -33 145
-7 33 -14 55 -14 49 -2 -26 -294 -43 -395 -24 -75 14 -86 23 -79 66 l5 30 156
2 c87 1 186 5 221 8 48 5 66 3 72 -7 6 -9 7 3 3 31 -8 52 -14 65 -14 27 0 -32
-10 -34 -197 -43 -95 -4 -157 -3 -190 5 l-48 12 3 39 c2 22 2 40 -1 40 -2 0
-10 -51 -17 -112z m460 -117 c0 -4 -28 -11 -61 -15 -89 -9 -299 -8 -299 2 0 5
19 8 43 7 23 -1 89 1 147 5 165 10 170 10 170 1z m5 -31 c-45 -12 -97 -12 -90
0 3 6 32 9 63 9 47 -1 52 -3 27 -9z m-120 -10 c-25 -11 -219 -11 -260 0 -18 5
33 8 125 8 95 0 147 -3 135 -8z m145 -9 c0 -19 -306 -36 -380 -21 -23 5 6 8
85 10 66 1 152 6 190 10 39 4 78 8 88 8 9 1 17 -2 17 -7z m24 -88 c8 -37 14
-68 13 -69 -1 -1 -42 -7 -92 -13 -138 -17 -321 -14 -386 6 -48 14 -51 17 -29
23 23 6 22 8 -16 19 l-41 13 10 38 10 37 191 -3 c105 -1 211 1 236 4 93 15 87
19 104 -55z m-529 -53 c8 -13 -5 -13 -25 0 -13 8 -13 10 2 10 9 0 20 -4 23
-10z"/>
<path d="M2135 2030 c-3 -5 -1 -10 4 -10 6 0 11 5 11 10 0 6 -2 10 -4 10 -3 0
-8 -4 -11 -10z"/>
<path d="M4014 2003 c0 -16 -3 -41 -6 -58 l-7 -30 14 30 c16 33 20 85 6 85 -4
0 -8 -12 -7 -27z"/>
<path d="M1898 1987 c12 -13 22 -28 22 -33 0 -6 14 -29 31 -52 17 -23 34 -54
38 -69 10 -37 25 -35 29 3 2 25 -5 40 -43 78 -25 26 -52 58 -61 71 -9 14 -21
25 -27 25 -6 0 -1 -10 11 -23z"/>
<path d="M2010 2006 c0 -3 14 -18 30 -34 17 -17 30 -41 30 -54 1 -22 1 -22 16
5 8 15 20 27 26 27 7 0 -1 14 -17 30 -19 19 -39 30 -57 30 -15 0 -28 -2 -28
-4z"/>
<path d="M3910 1993 c-14 -9 -35 -26 -47 -37 -18 -15 -23 -16 -23 -5 0 8 5 20
12 27 7 7 8 12 3 12 -12 0 -105 -61 -105 -69 0 -4 9 -17 20 -29 26 -28 37 -23
122 58 61 58 69 76 18 43z"/>
<path d="M1601 1961 c-8 -13 -22 -19 -51 -19 -23 -1 -56 -10 -78 -23 -49 -30
-48 -29 -33 -39 17 -10 69 7 97 31 23 21 48 25 39 7 -9 -18 25 24 36 45 5 9 7
17 5 17 -3 0 -10 -8 -15 -19z"/>
<path d="M1880 1948 c11 -20 28 -39 36 -42 11 -4 10 1 -5 22 -33 48 -56 61
-31 20z"/>
<path d="M1408 1938 c5 -5 16 -8 23 -6 8 3 3 7 -10 11 -17 4 -21 3 -13 -5z"/>
<path d="M3915 1900 c-17 -33 -19 -44 -6 -36 10 6 33 66 26 66 -3 0 -11 -13
-20 -30z"/>
<path d="M3122 1900 c0 -14 2 -19 5 -12 2 6 2 18 0 25 -3 6 -5 1 -5 -13z"/>
<path d="M3991 1894 c0 -11 3 -14 6 -6 3 7 2 16 -1 19 -3 4 -6 -2 -5 -13z"/>
<path d="M1470 1850 c0 -5 7 -7 15 -4 8 4 15 8 15 10 0 2 -7 4 -15 4 -8 0 -15
-4 -15 -10z"/>
<path d="M1781 1825 c-1 -16 -8 -58 -15 -92 -15 -72 -3 -75 18 -5 9 31 11 61
6 87 -7 36 -8 37 -9 10z"/>
<path d="M4031 1834 c0 -11 3 -14 6 -6 3 7 2 16 -1 19 -3 4 -6 -2 -5 -13z"/>
<path d="M3967 1793 c-3 -32 0 -56 9 -73 13 -23 14 -19 8 45 -4 39 -8 71 -9
73 -1 1 -5 -19 -8 -45z"/>
<path d="M1821 1814 c0 -11 3 -14 6 -6 3 7 2 16 -1 19 -3 4 -6 -2 -5 -13z"/>
<path d="M1751 1805 c-1 -21 -46 -115 -53 -112 -2 1 0 -2 4 -7 21 -26 65 65
55 114 -3 20 -5 21 -6 5z"/>
<path d="M4142 1811 c6 -20 54 -32 81 -21 18 7 15 9 -18 9 -23 1 -47 7 -54 14
-11 10 -13 9 -9 -2z"/>
<path d="M1535 1771 c17 -19 37 -31 49 -29 27 4 33 28 6 28 -11 0 -35 7 -53
16 l-32 16 30 -31z"/>
<path d="M1872 1744 c-11 -23 -10 -24 8 -14 11 6 20 15 20 21 0 6 4 8 9 4 5
-3 12 -2 15 3 2 4 -6 9 -18 10 -16 1 -27 -6 -34 -24z"/>
<path d="M4060 1740 c6 -11 13 -20 16 -20 2 0 0 9 -6 20 -6 11 -13 20 -16 20
-2 0 0 -9 6 -20z"/>
<path d="M1666 1725 c-30 -28 -36 -52 -8 -34 22 14 56 59 44 59 -5 0 -21 -11
-36 -25z"/>
<path d="M4200 1739 c-14 -6 -41 -8 -60 -5 -26 4 -30 3 -15 -4 31 -13 69 -12
91 5 22 17 19 18 -16 4z"/>
<path d="M3423 1635 c0 -22 2 -30 4 -17 2 12 2 30 0 40 -3 9 -5 -1 -4 -23z"/>
<path d="M2521 1464 c0 -11 3 -14 6 -6 3 7 2 16 -1 19 -3 4 -6 -2 -5 -13z"/>
<path d="M3230 1474 c0 -6 7 -19 16 -30 14 -18 14 -18 3 6 -14 31 -19 36 -19
24z"/>
<path d="M2370 1430 c0 -22 2 -40 4 -40 2 0 6 18 8 40 2 22 0 40 -4 40 -5 0
-8 -18 -8 -40z"/>
<path d="M2530 1435 c0 -5 5 -17 10 -25 5 -8 10 -10 10 -5 0 6 -5 17 -10 25
-5 8 -10 11 -10 5z"/>
<path d="M3265 1404 c4 -10 12 -46 17 -79 10 -71 76 -328 77 -303 1 10 -14 84
-33 165 -19 82 -37 165 -40 185 -4 21 -12 40 -18 44 -8 5 -9 1 -3 -12z"/>
<path d="M2553 1335 c0 -33 2 -45 4 -27 2 18 2 45 0 60 -2 15 -4 0 -4 -33z"/>
<path d="M2541 1195 c-2 -63 -28 -262 -36 -275 -3 -5 -12 -45 -19 -87 -8 -43
-23 -104 -35 -135 -11 -32 -21 -77 -21 -100 0 -24 -9 -60 -20 -80 -11 -20 -16
-39 -12 -42 4 -2 6 -23 4 -45 -2 -24 -8 -38 -14 -35 -5 4 -7 23 -4 43 4 26 3
31 -4 16 -5 -11 -6 -39 -3 -61 3 -28 -1 -52 -12 -74 -9 -17 -14 -34 -11 -37 3
-3 10 6 15 20 17 43 27 38 28 -14 0 -28 6 -56 12 -62 6 -6 11 -19 11 -29 0
-29 45 -23 66 10 34 50 54 92 54 111 0 10 7 21 15 25 8 3 15 14 15 25 0 11 5
23 10 26 6 3 10 13 10 21 0 20 22 42 37 37 8 -3 10 8 6 35 -5 38 -4 40 31 52
20 6 44 9 52 6 11 -4 14 -1 12 12 -2 9 -13 18 -26 20 -12 2 -22 7 -22 12 0 14
31 20 51 10 11 -6 19 -7 19 -1 0 5 30 -2 68 -15 37 -13 66 -28 64 -34 -1 -5 2
-10 7 -10 5 0 17 -7 25 -16 14 -14 16 -11 22 28 4 24 9 37 12 30 2 -6 8 -10
13 -6 5 3 9 1 9 -4 0 -6 11 -13 25 -16 18 -5 24 -12 22 -29 -2 -18 3 -22 23
-20 14 1 20 0 14 -3 -9 -4 -9 -11 0 -29 12 -27 32 -35 22 -10 -9 24 5 103 18
101 6 0 48 6 94 14 62 10 87 19 98 34 10 15 14 16 14 6 1 -11 5 -10 16 5 10
12 18 15 21 9 15 -40 28 -46 71 -33 23 7 45 9 49 6 11 -11 -3 -18 -46 -24 -33
-5 -39 -8 -30 -19 8 -9 17 -10 36 -3 29 11 53 6 53 -11 0 -5 -3 -9 -7 -9 -5 1
-21 1 -37 0 -25 -1 -27 -3 -15 -17 8 -10 21 -13 36 -9 31 7 48 -2 33 -20 -8
-10 -7 -16 7 -24 10 -6 14 -11 9 -11 -12 0 -119 61 -129 74 -6 7 -7 4 -3 -6 5
-16 -2 -18 -52 -19 l-57 -2 56 -7 c71 -9 167 -60 153 -81 -3 -5 0 -9 5 -9 6 0
11 5 11 12 0 6 3 8 8 4 4 -4 -6 -19 -23 -32 l-30 -25 33 6 c33 5 34 5 27 -23
-4 -22 -2 -31 10 -35 8 -4 20 -18 25 -32 12 -31 35 -42 56 -24 22 18 13 52
-18 67 -15 7 -30 21 -33 32 -4 11 -11 17 -16 14 -7 -4 -8 9 -4 38 5 35 2 57
-18 104 -20 47 -24 70 -20 116 4 42 1 65 -12 90 -10 18 -24 58 -31 88 -7 33
-13 45 -13 28 -1 -21 -7 -28 -31 -33 -17 -4 -28 -11 -24 -16 3 -5 0 -9 -6 -9
-6 0 -8 -5 -4 -11 3 -6 0 -15 -7 -20 -11 -7 -11 -9 3 -9 33 0 28 -20 -8 -35
-131 -55 -336 -107 -416 -106 -95 1 -254 38 -323 74 -19 10 -19 10 0 18 11 4
14 8 6 8 -25 2 -131 53 -125 62 5 9 26 113 46 234 7 39 15 72 19 75 4 3 3 43
-1 90 -5 64 -8 73 -9 35z m929 -524 c0 -5 -18 -16 -40 -25 -47 -19 -50 -19
-50 -6 0 5 16 12 35 16 19 3 35 10 35 15 0 5 5 9 10 9 6 0 10 -4 10 -9z m-410
-131 c0 -5 -8 -10 -17 -10 -15 0 -16 2 -3 10 19 12 20 12 20 0z m525 -250 c0
-32 -30 -39 -38 -9 -8 28 0 41 21 37 11 -2 17 -13 17 -28z"/>
<path d="M2542 970 c0 -14 2 -19 5 -12 2 6 2 18 0 25 -3 6 -5 1 -5 -13z"/>
<path d="M3380 941 c0 -6 4 -13 10 -16 6 -3 7 1 4 9 -7 18 -14 21 -14 7z"/>
<path d="M2950 539 c0 -5 5 -7 10 -4 6 3 10 8 10 11 0 2 -4 4 -10 4 -5 0 -10
-5 -10 -11z"/>
<path d="M3135 525 c24 -8 116 -12 103 -4 -7 5 -35 8 -63 8 -27 0 -45 -2 -40
-4z"/>
<path d="M3069 408 c-1 -7 -1 -19 0 -25 1 -7 -3 -22 -9 -33 -8 -15 -8 -20 1
-20 6 0 9 -7 5 -15 -3 -8 -1 -15 4 -15 6 0 10 27 10 60 0 33 -2 60 -5 60 -3 0
-6 -6 -6 -12z"/>
<path d="M3027 365 c-4 -8 -2 -17 2 -20 5 -2 11 4 14 15 6 23 -8 27 -16 5z"/>
<path d="M3072 225 c0 -16 2 -22 5 -12 2 9 2 23 0 30 -3 6 -5 -1 -5 -18z"/>
<path d="M3037 202 c16 -10 -5 -73 -35 -105 -12 -13 -22 -27 -22 -33 1 -5 10
2 21 15 11 13 22 21 26 17 4 -3 1 -12 -5 -18 -16 -16 -15 -31 1 -22 7 4 8 3 4
-2 -5 -5 -14 -9 -20 -10 -27 -2 -78 -17 -82 -24 -3 -4 4 -10 15 -13 11 -3 20
-2 20 2 0 4 11 13 25 19 19 9 25 9 25 -1 1 -19 30 25 30 45 0 10 8 31 18 45 9
15 11 24 5 20 -15 -9 -17 11 -4 32 12 19 3 41 -18 41 -11 0 -12 -3 -4 -8z"/>
<path d="M2980 10 c-8 -5 2 -8 24 -8 20 0 36 3 36 7 0 9 -45 10 -60 1z"/>
</g>
</svg>
